<?xml version="1.0" encoding="UTF-8" standalone="no"?>
<!-- Created with Inkscape (http://www.inkscape.org/) -->

<svg
   version="1.1"
   id="svg1"
   width="1024"
   height="723"
   viewBox="0 0 1024 723"
   xmlns="http://www.w3.org/2000/svg"
   xmlns:svg="http://www.w3.org/2000/svg">
  <defs
     id="defs1" />
  <g
     id="g1">
    <path
       style="fill:#ffffff;fill-opacity:1;stroke-width:1.20933"
       d="m 541.00426,616.83126 0.002,-33.55871 h 11.91439 c 10.37361,0 12.44577,0.355 16.02352,2.74508 7.2939,4.87266 8.33776,8.68166 8.33989,30.43182 0.001,16.71447 -0.31443,19.92165 -2.38348,24.18645 -3.57359,7.36598 -6.07231,8.46002 -20.89658,9.14939 l -13.00269,0.60467 z m 21.77028,20.86081 c 2.21059,-2.21059 2.41864,-4.03107 2.41864,-21.16315 0,-17.31099 -0.19043,-18.93491 -2.48995,-21.23444 -1.7075,-1.70751 -3.70261,-2.37253 -6.34894,-2.11632 l -3.859,0.37364 -0.33131,21.72715 c -0.1822,11.94993 -0.0632,22.42568 0.26438,23.27945 0.92301,2.40534 7.63669,1.84316 10.34618,-0.86633 z m 61.67316,-20.86081 0.002,-33.55871 h 6.0466 6.04662 v 27.81442 27.81443 h 8.46526 8.46526 v 5.37084 5.37083 l -14.51417,0.37345 -14.51415,0.37344 z m 112.9753,32.9917 c -4.26376,-1.72488 -8.77768,-8.20016 -9.61674,-13.79538 -0.43555,-2.90451 -0.60455,-13.37768 -0.37556,-23.2737 0.47179,-20.38837 1.89454,-24.66546 9.52742,-28.6413 5.40926,-2.8176 15.63486,-2.23048 20.26516,1.16358 6.58155,4.82432 7.50676,8.69022 7.47967,31.25276 -0.0288,23.96972 -1.3695,28.93007 -8.7685,32.44112 -4.4863,2.12889 -14.24578,2.57856 -18.51145,0.85292 z m 13.9633,-12.05139 c 0.70979,-1.32626 1.25187,-10.52462 1.25187,-21.24265 0,-10.71802 -0.54208,-19.91638 -1.25187,-21.24264 -0.86411,-1.61461 -2.53655,-2.33914 -5.39941,-2.33914 -2.86285,0 -4.5353,0.72453 -5.39941,2.33914 -1.5927,2.97601 -1.65279,37.56585 -0.0725,41.7224 0.95502,2.51189 1.98225,3.10203 5.39941,3.10203 2.93452,0 4.60135,-0.71254 5.47189,-2.33914 z M 145.55826,432.0083 V 214.23128 l -14.20954,13.29495 c -14.35817,13.43401 -38.366726,33.79232 -51.698536,43.83829 -20.420493,15.38752 -54.48591,38.60114 -56.64622,38.60114 -0.438135,0 -0.783739,-21.90385 -0.768019,-48.67523 l 0.02855,-48.67523 4.991829,-3.62797 C 76.363381,173.29722 130.20259,117.33639 165.44256,65.355567 l 7.18644,-10.600385 27.88391,0.324036 27.88395,0.324047 0.30476,297.191025 0.30475,297.191 h -41.72405 -41.72405 z m 114.88563,-77.80345 c 0,-162.56926 0.33032,-296.441263 0.73405,-297.493344 0.63972,-1.6671 4.28557,-1.912893 28.37403,-1.912893 h 27.63997 l 5.09248,7.558264 c 33.34499,49.490683 82.15414,101.415353 130.83595,139.187253 l 15.327,11.89212 v 48.26471 c 0,26.54558 -0.30786,48.2647 -0.68416,48.2647 -2.73454,0 -34.56776,-21.47581 -56.15399,-37.88347 -19.20739,-14.59949 -33.4633,-26.60801 -53.81486,-45.33109 l -13.30255,-12.23812 -0.30562,217.63617 -0.3056,217.63614 h -41.71835 -41.71835 z m 325.30777,262.32407 v -33.25637 h 15.11653 15.11654 v 4.8373 4.83729 h -9.06992 -9.06993 v 9.06992 9.06991 h 7.8606 7.8606 v 5.44195 5.44196 h -7.8606 -7.8606 v 8.46526 8.46526 h 9.67459 9.67457 v 5.44194 5.44195 h -15.72119 -15.72119 z m 95.53648,0 v -33.25637 h 4.88027 c 5.59112,0 5.0744,-0.87412 15.36981,26.00044 3.05766,7.98152 5.88396,14.90234 6.28071,15.37957 0.39672,0.47724 0.51402,-8.63803 0.26065,-20.25615 l -0.46068,-21.12386 h 5.57911 5.57913 v 33.25637 33.25637 h -5.32364 c -4.70601,0 -5.46503,-0.38583 -6.54219,-3.32563 -0.67019,-1.8291 -4.51845,-11.76066 -8.55169,-22.07014 l -7.33314,-18.74449 -0.0319,22.07012 -0.0318,22.07014 h -4.8373 -4.83729 z m 93.11783,-0.10702 v -33.36336 l 13.27808,0.40932 c 12.64395,0.38979 13.43807,0.56941 16.62819,3.76116 3.06639,3.06796 3.38519,4.25223 3.76434,13.98378 0.38657,9.92196 0.20947,10.87528 -2.65202,14.27596 -3.01896,3.58782 -3.03001,3.67504 -0.71655,5.65589 2.01827,1.7281 2.34968,3.6199 2.34968,13.41335 0,6.27082 0.3303,12.26229 0.73404,13.31438 0.6103,1.59043 -0.3071,1.91289 -5.44195,1.91289 h -6.176 v -11.2467 c 0,-12.48857 -0.79377,-14.14905 -6.76376,-14.14905 -4.89493,0 -5.32947,1.19126 -5.32947,14.61078 v 10.78499 h -4.83729 -4.83729 z m 21.46152,-4.93382 c 0.83358,-1.14001 1.51561,-4.92292 1.51561,-8.40649 0,-7.87053 -2.13531,-10.4124 -8.31334,-9.89618 l -4.38454,0.36639 -0.36692,7.82329 c -0.20181,4.3028 -0.0386,9.13131 0.36262,10.73001 0.65172,2.59661 1.20653,2.82933 5.20025,2.18124 2.45888,-0.39903 5.15273,-1.65823 5.98632,-2.79824 z m 28.1207,9.94439 v -28.48533 h -5.44194 -5.44196 v -4.83729 -4.8373 h 16.93052 16.93052 v 4.70791 c 0,5.17804 -1.15285,6.10642 -7.07378,5.6965 -2.09558,-0.14507 -3.82722,0.31161 -3.84812,1.01485 -0.021,0.70325 -0.15694,13.25093 -0.30233,27.88373 l -0.26433,26.60509 -5.74429,0.3686 -5.74429,0.36858 z m 30.23307,-4.90355 v -33.25637 h 15.11653 15.11654 v 4.8373 4.83729 h -9.67459 -9.67457 v 9.06992 9.06991 h 8.53479 8.5348 l -0.37188,5.13962 -0.37186,5.13963 -8.16292,0.35758 -8.16293,0.35759 v 8.41 8.41001 h 9.67457 9.67459 v 5.44194 5.44195 H 869.33779 854.22126 Z M 541.00673,515.41672 V 481.4219 l 13.00022,0.47277 c 19.46346,0.70782 22.07013,3.35187 22.07013,22.38656 0,16.76448 -3.65005,22.06064 -16.01933,23.24378 l -7.56246,0.72337 -0.34941,10.58157 -0.34942,10.58157 h -5.39486 -5.39487 z m 21.20483,0.8575 c 1.84053,-1.34583 2.4122,-3.56157 2.7756,-10.75808 0.40522,-8.02446 0.15789,-9.36294 -2.15811,-11.67893 -1.82732,-1.82733 -3.77894,-2.50316 -6.47476,-2.24214 l -3.859,0.37363 -0.34324,13.00022 -0.34325,13.00022 h 4.04241 c 2.22331,0 5.08547,-0.76271 6.36035,-1.69492 z m 22.33077,-0.72373 v -33.86102 h 10.92275 c 18.96652,0 22.93829,3.55882 22.93829,20.55338 0,8.59337 -0.33876,10.12838 -2.7722,12.56182 l -2.7722,2.7722 2.44118,3.2697 c 1.99438,2.67124 2.52735,5.59774 2.91202,15.9893 l 0.47084,12.7196 -5.8841,-0.37431 -5.8841,-0.3743 -0.60467,-11.83872 c -0.65213,-12.76794 -1.36864,-14.10873 -7.55826,-14.14319 l -3.32564,-0.0185 v 13.30254 13.30255 h -5.44195 -5.44196 z m 21.07677,-4.31901 c 1.2961,-1.29608 1.90037,-4.15833 1.90037,-9.00134 0,-5.96704 -0.4292,-7.40161 -2.68773,-8.98354 -1.47825,-1.0354 -4.19922,-1.88256 -6.04662,-1.88256 h -3.35888 v 10.88391 10.8839 h 4.14625 c 2.28044,0 5.00141,-0.85517 6.04661,-1.90037 z m 20.0402,32.7381 c 0,-5.2404 0.13437,-5.44196 3.62797,-5.44196 h 3.62797 v -22.97713 -22.97712 h -3.62797 c -3.4936,0 -3.62797,-0.20157 -3.62797,-5.44196 v -5.44194 h 12.69789 12.69788 v 5.44194 c 0,5.24039 -0.13437,5.44196 -3.62796,5.44196 h -3.62797 v 22.97712 22.97713 h 3.62797 c 3.49359,0 3.62796,0.20156 3.62796,5.44196 v 5.44194 H 638.35719 625.6593 Z m 45.37934,3.99705 c -0.30265,-0.86813 -2.17516,-9.46925 -4.16113,-19.11359 -1.98598,-9.64434 -4.99798,-23.92023 -6.69334,-31.72418 -1.69536,-7.80394 -3.08248,-14.50016 -3.08248,-14.88046 0,-0.3803 2.56294,-0.5256 5.69542,-0.32286 l 5.69543,0.36858 3.91066,19.95383 c 2.15086,10.9746 3.98402,21.3143 4.0737,22.97712 0.0898,1.66283 1.99404,-6.70672 4.23192,-18.59896 2.23787,-11.89227 4.35503,-22.36803 4.70477,-23.27947 0.41098,-1.07094 2.60333,-1.65717 6.19732,-1.65717 4.74397,0 5.46356,0.31105 4.89569,2.11631 -0.36616,1.16397 -1.18958,4.83729 -1.82984,8.16292 -0.64023,3.32564 -3.1298,15.29794 -5.53235,26.6051 -2.40257,11.30717 -4.75744,22.73526 -5.23309,25.39578 -0.85272,4.76975 -0.94477,4.84243 -6.59362,5.20638 -3.89756,0.2511 -5.9047,-0.13546 -6.27906,-1.20933 z m 23.95307,-1.27608 c 0.36478,-1.49654 3.44123,-15.78166 6.83656,-31.74471 3.39531,-15.96307 6.46657,-30.00405 6.82501,-31.20219 0.52781,-1.76432 1.71219,-2.10915 6.23013,-1.81398 l 5.57844,0.36445 6.3513,29.02374 c 3.49321,15.96306 6.69926,31.06447 7.12454,33.5587 l 0.77324,4.53496 h -5.47708 -5.47708 l -1.01642,-5.13962 -1.01639,-5.13961 h -6.48123 c -6.87822,0 -7.79927,0.70268 -9.11449,6.9536 -0.64031,3.04323 -1.17103,3.32563 -6.24974,3.32563 -5.14586,0 -5.50172,-0.19813 -4.88679,-2.72097 z m 24.58052,-20.50026 c -0.38298,-1.4645 -1.6514,-8.11955 -2.81871,-14.78897 l -2.12239,-12.12623 -2.11718,12.67267 c -2.95895,17.71119 -3.0913,16.90528 2.77626,16.90528 4.53508,0 4.91635,-0.23709 4.28202,-2.66275 z m 22.18203,-10.6398 v -33.86102 l 9.37226,0.007 c 22.27233,0.0155 26.90743,5.84728 26.90743,33.85378 0,28.0065 -4.6351,33.83826 -26.90743,33.85429 l -9.37226,0.006 z m 22.41891,19.25935 c 2.49347,-4.82183 2.49496,-33.69397 0.002,-38.51486 -1.68312,-3.25476 -4.79541,-4.87833 -9.42069,-4.91443 -1.94347,-0.0151 -2.11631,1.90213 -2.11631,23.47661 0,21.40143 0.18842,23.53209 2.11631,23.93083 4.17394,0.86328 7.68111,-0.61804 9.41868,-3.97815 z m 18.17773,10.67138 c 0.48463,-2.16165 3.7018,-17.26307 7.14927,-33.5587 l 6.26812,-29.6284 h 5.859 5.859 l 7.01444,32.04705 c 3.85794,17.62588 7.02667,32.72729 7.04163,33.55871 0.0178,0.98649 -1.83867,1.51164 -5.34359,1.51164 -5.35368,0 -5.37401,-0.0163 -6.38236,-5.13962 l -1.01156,-5.13961 -6.88229,-0.36156 c -6.66663,-0.35022 -6.90595,-0.25548 -7.63726,3.0233 -1.72044,7.71351 -1.62768,7.61749 -7.35901,7.61749 h -5.45655 z m 24.28595,-18.74449 c -0.3211,-1.16398 -1.56444,-7.52033 -2.76299,-14.12524 l -2.17916,-12.00892 -2.0948,11.40425 c -3.11798,16.97454 -3.13856,16.84622 2.70198,16.84622 4.10075,0 4.8217,-0.35196 4.33497,-2.11631 z M 548.49222,446.58811 c -6.81848,-4.15711 -7.48549,-7.54533 -7.48549,-38.02381 v -27.24861 h 5.35739 5.3574 l 0.38688,26.7044 c 0.35918,24.79201 0.555,26.82719 2.73435,28.41908 2.95221,2.15644 4.44635,2.15635 7.39831,-4.1e-4 2.17778,-1.59115 2.3766,-3.6371 2.7506,-28.30534 l 0.40314,-26.59021 5.34113,-0.42481 5.34115,-0.4248 -0.0267,27.21847 c -0.0236,24.12079 -0.28798,27.79428 -2.32361,32.2779 -1.37637,3.03155 -3.76521,5.81863 -5.96,6.9536 -5.19453,2.68619 -14.39249,2.42114 -19.2747,-0.55546 z m 248.19064,0.73364 c -5.2252,-2.27521 -7.97778,-8.6191 -7.52282,-17.33798 l 0.36247,-6.94645 h 5.44194 5.44196 l 0.37509,6.62488 c 0.39958,7.05704 1.43661,8.44371 6.33665,8.47314 4.35087,0.0261 5.98614,-2.11907 5.98614,-7.85281 0,-6.23398 -1.09863,-7.59411 -11.22336,-13.89464 -9.55359,-5.94514 -11.75376,-9.45425 -11.75376,-18.74634 0,-12.20755 5.22269,-17.53909 17.17279,-17.53066 11.54316,0.008 16.6625,5.66643 16.68149,18.43765 l 0.006,4.53496 h -5.22126 -5.22126 l -1.12768,-6.34895 c -1.01909,-5.73753 -1.45499,-6.38646 -4.52644,-6.73865 -4.68369,-0.53706 -6.88048,1.69095 -6.88048,6.97826 0,5.07991 2.13674,7.51032 11.16491,12.6994 3.14763,1.80914 7.09304,4.9176 8.76759,6.90768 2.65887,3.15992 3.04462,4.76333 3.04462,12.65554 0,10.85258 -2.1,15.65799 -7.90206,18.08226 -5.12699,2.1422 -14.48676,2.14351 -19.40328,0.002 z m -210.9312,-32.81923 v -33.32589 l 5.06623,0.37186 5.06622,0.37187 5.72614,14.21624 c 3.14936,7.81894 6.83305,17.34236 8.18596,21.16315 l 2.45984,6.94689 0.0504,-21.46547 0.0504,-21.46548 h 5.44195 5.44195 v 33.25637 33.25637 h -5.25094 -5.25094 l -7.91522,-20.25615 c -4.35337,-11.14089 -8.20572,-21.07244 -8.5608,-22.07014 -0.35506,-0.99769 -0.68853,8.11758 -0.74104,20.25616 l -0.0955,22.07013 h -4.8373 -4.83729 z m 44.74493,27.88396 c 0,-5.41965 0.0174,-5.44195 4.25932,-5.44195 h 4.25931 l -0.32901,-22.63197 -0.32902,-22.63197 -3.62797,-0.0428 c -3.38668,-0.04 -3.65244,-0.37956 -3.99609,-5.10581 l -0.36811,-5.06298 13.4247,-0.37896 13.42469,-0.37899 -0.35868,5.44196 c -0.33671,5.10838 -0.56255,5.42799 -3.68434,5.21428 l -3.32564,-0.22769 v 22.90247 22.90247 h 3.62798 c 3.49359,0 3.62796,0.20156 3.62796,5.44195 v 5.44196 h -13.30255 -13.30255 z m 45.2368,0.90699 c -0.45487,-2.49422 -3.4726,-16.74997 -6.70607,-31.67945 -3.23346,-14.92946 -5.87902,-27.85409 -5.87902,-28.72141 0,-1.06174 1.77038,-1.57692 5.41891,-1.57692 4.62125,0 5.51437,0.40054 6.06741,2.72098 1.4686,6.16199 5.71121,29.72889 6.31352,35.07036 0.6528,5.78923 2.74879,8.07677 2.77015,3.0233 0.0109,-2.45086 5.05942,-31.38933 6.64642,-38.09366 0.54943,-2.3211 1.44045,-2.72098 6.063,-2.72098 2.9804,0 5.41891,0.48901 5.41891,1.08668 0,0.59766 -2.99307,15.29724 -6.65127,32.66575 -3.6582,17.36849 -6.65128,31.84484 -6.65128,32.16969 0,0.32483 -2.69631,0.59062 -5.99181,0.59062 -5.97063,0 -5.99474,-0.0161 -6.81887,-4.53496 z m 33.36917,-28.72141 v -33.25637 h 15.11653 15.11653 v 4.78643 4.78641 l -9.37225,0.35321 -9.37225,0.35319 v 8.46526 8.46526 l 8.16292,0.35758 8.16293,0.35759 v 4.72678 4.72679 l -8.16293,0.35758 -8.16292,0.35759 -0.35531,8.76758 -0.35531,8.76759 h 9.72756 9.72756 v 5.44195 5.44195 h -15.11653 -15.11653 z m 38.69586,-0.30233 -0.002,-33.5587 13.00269,0.66547 c 7.15148,0.366 13.97515,1.11219 15.16373,1.6582 3.89961,1.79139 5.69955,7.31081 5.69955,17.47731 0,8.60859 -0.33551,10.04059 -3.13079,13.3626 -1.72202,2.04642 -2.51053,3.72076 -1.75235,3.72076 2.78576,0 4.88309,8.29396 4.88309,19.31032 v 10.92274 h -5.41892 c -6.37175,0 -6.5078,-0.29488 -6.9744,-15.11653 l -0.30457,-9.67458 -5.13962,-0.37187 -5.13962,-0.37186 v 12.76742 12.76742 h -5.44195 -5.44195 z m 21.5284,-4.17216 c 1.95234,-1.95234 1.90409,-16.02117 -0.0605,-17.6319 -1.54303,-1.26512 -4.68107,-1.86366 -8.46526,-1.61465 -1.83863,0.12098 -2.11632,1.48801 -2.11632,10.41849 v 10.27925 h 4.59543 c 2.52748,0 5.24845,-0.65303 6.0466,-1.45119 z m 60.94078,32.59124 c 0.34961,-4.8319 0.60876,-5.16242 4.32857,-5.52054 l 3.95669,-0.38092 -0.32872,-22.59621 c -0.31472,-21.63302 -0.43183,-22.60147 -2.74737,-22.71948 -1.33027,-0.0679 -2.96285,-0.20421 -3.62797,-0.30312 -0.66513,-0.0989 -1.33504,-2.35626 -1.48869,-5.01634 l -0.27937,-4.83651 h 13.27958 13.27959 v 4.70791 c 0,4.87009 -1.90459,6.76141 -5.44195,5.404 -1.57344,-0.60378 -1.81399,2.36813 -1.81399,22.41042 v 23.10651 h 3.62796 c 3.49361,0 3.62798,0.20156 3.62798,5.44195 v 5.44195 h -13.37209 -13.37208 z m 34.83757,-28.11675 v -33.25637 l 11.79089,0.005 c 9.56046,0.003 12.52327,0.45108 15.66248,2.36517 6.85887,4.18209 7.61698,7.22201 7.61698,30.54315 0,17.97043 -0.31334,21.52401 -2.20976,25.06008 -3.50279,6.53103 -8.59595,8.53951 -21.6555,8.53951 h -11.20509 z m 20.72684,21.26999 c 2.77791,-2.24943 2.85495,-2.81699 2.85495,-21.03617 0,-16.71603 -0.2471,-18.99742 -2.30376,-21.27 -1.46737,-1.62144 -3.77232,-2.54561 -6.34893,-2.54561 h -4.0452 v 23.58179 23.58179 h 3.49399 c 1.9217,0 4.77871,-1.04031 6.34895,-2.3118 z m 19.24915,11.07939 c 0.0376,-0.49885 3.17888,-15.32816 6.98067,-32.95404 l 6.91232,-32.04704 h 5.94147 5.94148 l 6.24638,28.41908 c 3.43552,15.63049 6.62444,30.45981 7.08648,32.95403 l 0.84009,4.53496 h -5.4737 c -4.98846,0 -5.53832,-0.29484 -6.20243,-3.32563 -0.4008,-1.82911 -0.93828,-4.00589 -1.19441,-4.83729 -0.29955,-0.97235 -2.86572,-1.51166 -7.19288,-1.51166 -4.32716,0 -6.89333,0.53931 -7.19288,1.51166 -0.25613,0.8314 -0.79362,3.00818 -1.19441,4.83729 -0.66278,3.02477 -1.21896,3.32563 -6.14762,3.32563 -2.9804,0 -5.38816,-0.40814 -5.35056,-0.90699 z m 24.47918,-19.34916 c 0.27712,-0.49884 -0.47404,-5.80475 -1.66923,-11.7909 -1.19518,-5.98614 -2.25942,-12.51648 -2.36497,-14.51187 -0.22086,-4.17552 -4.57115,17.35334 -4.70401,23.27946 -0.0827,3.68979 0.16651,3.9303 4.07313,3.9303 2.28869,0 4.38797,-0.40814 4.66508,-0.90699 z m 22.61605,-13.00022 v -33.25637 l 11.79089,0.005 c 9.69244,0.003 12.50334,0.43889 15.79396,2.44512 6.48315,3.95271 7.48548,8.11547 7.48548,31.08908 0,17.36428 -0.32083,20.91214 -2.20969,24.4342 -3.50283,6.53103 -8.59602,8.53951 -21.65555,8.53951 h -11.20509 z m 20.72681,21.26999 c 2.77793,-2.24943 2.85495,-2.81699 2.85495,-21.03617 0,-16.71603 -0.24708,-18.99742 -2.30368,-21.27 -1.46741,-1.62144 -3.77235,-2.54561 -6.34902,-2.54561 h -4.04516 v 23.58179 23.58179 h 3.494 c 1.92173,0 4.77867,-1.04031 6.34891,-2.3118 z M 585.147,313.67647 c -27.66871,-4.5489 -43.00176,-17.8825 -50.94212,-44.29923 -1.98404,-6.6007 -2.19055,-15.54594 -2.56012,-110.90204 l -0.40201,-103.722231 27.55678,0.325153 27.55679,0.325143 0.60467,97.404385 c 0.55818,89.91806 0.76642,97.65123 2.70953,100.6161 4.31232,6.57994 17.28588,6.95698 21.47991,0.62426 1.55807,-2.35259 1.89543,-16.41493 2.41565,-100.68961 l 0.60466,-97.955135 27.55679,-0.325143 27.55678,-0.325153 -0.39886,103.722231 c -0.3566,92.73575 -0.61285,104.42094 -2.41917,110.31867 -7.0794,23.11464 -20.1829,36.5027 -42.01629,42.92876 -7.70935,2.26903 -30.49579,3.4018 -39.30299,1.95384 z M 698.21866,182.9868 V 54.798613 l 35.37268,0.03119 c 19.45497,0.01718 40.80377,0.559199 47.44175,1.204521 30.6225,2.977049 46.3746,14.644034 53.40975,39.558601 1.5058,5.332675 2.10291,14.417935 2.53722,38.605175 0.81927,45.62521 -1.71543,60.94101 -12.44846,75.2191 -11.29625,15.02731 -26.28283,21.13788 -55.56733,22.6568 l -16.3261,0.84679 v 39.12709 39.1271 h -27.20976 -27.20975 z m 77.36875,-5.46058 c 5.26474,-5.26473 6.45273,-13.54448 5.81008,-40.49368 -0.5996,-25.14426 -1.50917,-28.50366 -8.63266,-31.88398 -2.54822,-1.2092 -7.26566,-1.97705 -12.14649,-1.97705 h -7.98017 v 39.43104 39.43102 l 9.6596,-0.43867 c 8.84085,-0.40148 9.96731,-0.74634 13.28964,-4.06868 z m 86.45689,132.16224 c -0.32207,-0.84523 -0.44537,-58.40517 -0.27402,-127.91098 l 0.31158,-126.374215 h 24.79111 24.79111 l 20.99755,60.466135 c 11.54866,33.25637 21.86785,63.59524 22.93154,67.41973 1.0637,3.82448 2.2266,6.95378 2.58424,6.95399 0.35765,2.1e-4 0.49675,-30.47471 0.30915,-67.72206 l -0.3411,-67.722447 h 24.82991 24.82983 V 182.9868 311.17499 h -24.05709 c -21.79505,0 -24.13358,-0.19898 -24.87122,-2.11632 -3.60145,-9.36102 -42.67533,-120.03519 -44.66415,-126.50817 l -2.5492,-8.2969 2.8e-4,68.15836 2.6e-4,68.15837 -24.51709,0.32746 c -18.95575,0.25318 -24.64993,-0.0212 -25.10269,-1.20933 z"
       id="path1" />
  </g>
</svg>
